<svg width="75" height="82" viewBox="0 0 75 82" fill="none" xmlns="http://www.w3.org/2000/svg">
<g filter="url(#filter0_d_498_700)">
<path d="M42.7243 69.7845C41.2034 71.2132 39.2037 72.005 37.1287 72C35.0548 72.0041 33.0565 71.2124 31.5366 69.7845C17.8035 56.691 -0.601738 42.0645 8.37264 20.83C13.2316 9.35 24.8793 2 37.1321 2C49.385 2 61.0361 9.35 65.8882 20.83C74.8522 42.04 56.4919 56.7365 42.7243 69.7845Z" fill="#8000FF"/>
<path d="M42.7243 69.7845C41.2034 71.2132 39.2037 72.005 37.1287 72C35.0548 72.0041 33.0565 71.2124 31.5366 69.7845C17.8035 56.691 -0.601738 42.0645 8.37264 20.83C13.2316 9.35 24.8793 2 37.1321 2C49.385 2 61.0361 9.35 65.8882 20.83C74.8522 42.04 56.4919 56.7365 42.7243 69.7845Z" stroke="#8000FF" stroke-width="4" stroke-linecap="round" stroke-linejoin="round"/>
</g>
<path d="M50.1818 24.6228H56.5909L63 32.2248V43.3655H58.6525C58.3953 44.9269 57.5054 46.3548 56.1459 47.3875C54.7864 48.4203 53.0483 48.9887 51.25 48.9887C49.4517 48.9887 47.7136 48.4203 46.3541 47.3875C44.9946 46.3548 44.1047 44.9269 43.8475 43.3655H33.0161C32.7622 44.9291 31.8736 46.3599 30.5138 47.395C29.1539 48.4301 27.414 49 25.6136 49C23.8133 49 22.0734 48.4301 20.7135 47.395C19.3536 46.3599 18.4651 44.9291 18.2111 43.3655H16V20.8743C16 20.3772 16.2251 19.9005 16.6257 19.549C17.0264 19.1975 17.5698 19 18.1364 19H48.0455C48.6121 19 49.1554 19.1975 49.5561 19.549C49.9567 19.9005 50.1818 20.3772 50.1818 20.8743V24.6228ZM50.1818 28.3713V33.9941H58.7273V33.46L54.4375 28.3713H50.1818Z" fill="white"/>
<defs>
<filter id="filter0_d_498_700" x="-0.0010376" y="0" width="74.262" height="82" filterUnits="userSpaceOnUse" color-interpolation-filters="sRGB">
<feFlood flood-opacity="0" result="BackgroundImageFix"/>
<feColorMatrix in="SourceAlpha" type="matrix" values="0 0 0 0 0 0 0 0 0 0 0 0 0 0 0 0 0 0 127 0" result="hardAlpha"/>
<feOffset dy="4"/>
<feGaussianBlur stdDeviation="2"/>
<feComposite in2="hardAlpha" operator="out"/>
<feColorMatrix type="matrix" values="0 0 0 0 0 0 0 0 0 0 0 0 0 0 0 0 0 0 0.25 0"/>
<feBlend mode="normal" in2="BackgroundImageFix" result="effect1_dropShadow_498_700"/>
<feBlend mode="normal" in="SourceGraphic" in2="effect1_dropShadow_498_700" result="shape"/>
</filter>
</defs>
</svg>
